<?xml version="1.0" encoding="UTF-8" standalone="no"?>
<!-- Uploaded to: SVG Repo, www.svgrepo.com, Generator: SVG Repo Mixer Tools -->

<svg
   width="750.00037"
   height="650.00018"
   viewBox="0 0 480.00023 416.00012"
   version="1.1"
   id="svg8"
   sodipodi:docname="icon_descr.svg"
   inkscape:version="1.1.1 (3bf5ae0d25, 2021-09-20)"
   xmlns:inkscape="http://www.inkscape.org/namespaces/inkscape"
   xmlns:sodipodi="http://sodipodi.sourceforge.net/DTD/sodipodi-0.dtd"
   xmlns="http://www.w3.org/2000/svg"
   xmlns:svg="http://www.w3.org/2000/svg"
   xmlns:rdf="http://www.w3.org/1999/02/22-rdf-syntax-ns#"
   xmlns:cc="http://creativecommons.org/ns#"
   xmlns:dc="http://purl.org/dc/elements/1.1/">
  <defs
     id="defs12" />
  <sodipodi:namedview
     id="namedview10"
     pagecolor="#ffffff"
     bordercolor="#666666"
     borderopacity="1.0"
     inkscape:pageshadow="2"
     inkscape:pageopacity="0.0"
     inkscape:pagecheckerboard="0"
     showgrid="false"
     fit-margin-top="0"
     fit-margin-left="0"
     fit-margin-right="0"
     fit-margin-bottom="0"
     inkscape:zoom="0.52"
     inkscape:cx="188.46154"
     inkscape:cy="337.5"
     inkscape:window-width="1920"
     inkscape:window-height="1017"
     inkscape:window-x="-8"
     inkscape:window-y="-8"
     inkscape:window-maximized="1"
     inkscape:current-layer="svg8" />
  <title
     id="title2">ionicons-v5-h</title>
  <path
     d="m 240.00011,112.00011 c 16,-63.16 76.43,-95.41 208,-96 a 15.94,15.94 0 0 1 16,16 v 288 a 16,16 0 0 1 -16,16 c -128,0 -177.45,25.81 -208,64 -30.37,-38 -80,-64 -208,-64 -9.88,0 -16,-8.05 -16,-17.93 v -286.07 a 15.94,15.94 0 0 1 16,-16 c 131.57,0.59 192,32.84 208,96 z"
     style="fill:none;stroke:#000000;stroke-width:32px;stroke-linecap:round;stroke-linejoin:round"
     id="path4" />
  <line
     x1="240.00011"
     y1="112.00011"
     x2="240.00011"
     y2="400.00012"
     style="fill:none;stroke:#000000;stroke-width:32px;stroke-linecap:round;stroke-linejoin:round"
     id="line6" />
  <metadata
     id="metadata829">
    <rdf:RDF>
      <cc:Work
         rdf:about="">
        <dc:title>ionicons-v5-h</dc:title>
      </cc:Work>
    </rdf:RDF>
  </metadata>
</svg>
