<?xml version="1.0" encoding="UTF-8" standalone="no"?>
<!-- Uploaded to: SVG Repo, www.svgrepo.com, Generator: SVG Repo Mixer Tools -->

<svg
   fill="#000000"
   width="563.16858"
   height="717.85712"
   viewBox="0 0 39.421801 50.249998"
   version="1.1"
   id="svg4"
   sodipodi:docname="icon_default.svg"
   inkscape:version="1.1.1 (3bf5ae0d25, 2021-09-20)"
   xmlns:inkscape="http://www.inkscape.org/namespaces/inkscape"
   xmlns:sodipodi="http://sodipodi.sourceforge.net/DTD/sodipodi-0.dtd"
   xmlns="http://www.w3.org/2000/svg"
   xmlns:svg="http://www.w3.org/2000/svg">
  <defs
     id="defs8" />
  <sodipodi:namedview
     id="namedview6"
     pagecolor="#ffffff"
     bordercolor="#666666"
     borderopacity="1.0"
     inkscape:pageshadow="2"
     inkscape:pageopacity="0.0"
     inkscape:pagecheckerboard="0"
     showgrid="false"
     fit-margin-top="0"
     fit-margin-left="0"
     fit-margin-right="0"
     fit-margin-bottom="0"
     inkscape:zoom="0.52"
     inkscape:cx="71.153846"
     inkscape:cy="374.03846"
     inkscape:window-width="1920"
     inkscape:window-height="1017"
     inkscape:window-x="-8"
     inkscape:window-y="-8"
     inkscape:window-maximized="1"
     inkscape:current-layer="svg4" />
  <path
     d="m 7.2656,50.25 h 24.8906 c 4.8516,0 7.2656,-2.461 7.2656,-7.336 V 21.6328 c 0,-3.0234 -0.3281,-4.336 -2.2031,-6.2578 L 24.2812,2.2265 C 22.5,0.3984 21.0468,0 18.3984,0 H 7.2656 C 2.4375,0 0,2.4844 0,7.3594 V 42.914 c 0,4.8985 2.4375,7.336 7.2656,7.336 z m 0.1875,-3.7735 c -2.4141,0 -3.6797,-1.289 -3.6797,-3.6328 V 7.4297 c 0,-2.3203 1.2656,-3.6563 3.7031,-3.6563 h 10.4062 v 13.6172 c 0,2.9531 1.5,4.4062 4.4063,4.4062 h 13.3594 v 21.0469 c 0,2.3438 -1.2422,3.6328 -3.6797,3.6328 z M 22.7109,18.2578 c -0.9141,0 -1.2891,-0.375 -1.2891,-1.3125 V 4.5 l 13.5,13.7578 z m 5.625,9.9844 H 10.5468 c -0.8437,0 -1.4531,0.6328 -1.4531,1.4297 0,0.8203 0.6094,1.4531 1.4531,1.4531 h 17.7891 c 0.8203,0 1.4531,-0.6328 1.4531,-1.4531 0,-0.7969 -0.6328,-1.4297 -1.4531,-1.4297 z m 0,8.1797 H 10.5468 c -0.8437,0 -1.4531,0.6562 -1.4531,1.4765 0,0.7969 0.6094,1.4063 1.4531,1.4063 h 17.7891 c 0.8203,0 1.4531,-0.6094 1.4531,-1.4063 0,-0.8203 -0.6328,-1.4765 -1.4531,-1.4765 z"
     id="path2" />
</svg>
