<?xml version="1.0" encoding="UTF-8" standalone="no"?>
<!-- Uploaded to: SVG Repo, www.svgrepo.com, Generator: SVG Repo Mixer Tools -->

<svg
   width="533.703"
   height="733.33331"
   viewBox="0 0 16.01109 21.999999"
   fill="none"
   version="1.1"
   id="svg6"
   sodipodi:docname="icon_tamada.svg"
   inkscape:version="1.1.1 (3bf5ae0d25, 2021-09-20)"
   xmlns:inkscape="http://www.inkscape.org/namespaces/inkscape"
   xmlns:sodipodi="http://sodipodi.sourceforge.net/DTD/sodipodi-0.dtd"
   xmlns="http://www.w3.org/2000/svg"
   xmlns:svg="http://www.w3.org/2000/svg">
  <defs
     id="defs10" />
  <sodipodi:namedview
     id="namedview8"
     pagecolor="#ffffff"
     bordercolor="#666666"
     borderopacity="1.0"
     inkscape:pageshadow="2"
     inkscape:pageopacity="0.0"
     inkscape:pagecheckerboard="0"
     showgrid="false"
     fit-margin-top="0"
     fit-margin-left="0"
     fit-margin-right="0"
     fit-margin-bottom="0"
     inkscape:zoom="0.52"
     inkscape:cx="132.69231"
     inkscape:cy="283.65385"
     inkscape:window-width="1920"
     inkscape:window-height="1017"
     inkscape:window-x="-8"
     inkscape:window-y="-8"
     inkscape:window-maximized="1"
     inkscape:current-layer="svg6" />
  <path
     fill-rule="evenodd"
     clip-rule="evenodd"
     d="m 10.50555,9.5 v -5 c 0,-1.38071 -1.1193002,-2.5 -2.5000002,-2.5 -1.3807,0 -2.5,1.11929 -2.5,2.5 v 5 c 0,1.3807 1.1193,2.5 2.5,2.5 1.3807,0 2.5000002,-1.1193 2.5000002,-2.5 z M 8.0055498,0 c -2.48528,0 -4.5,2.01472 -4.5,4.5 v 5 c 0,2.4853 2.01472,4.5 4.5,4.5 C 10.49085,14 12.50555,11.9853 12.50555,9.5 v -5 c 0,-2.48528 -2.0147,-4.5 -4.5000002,-4.5 z"
     fill="#0f0f0f"
     id="path2" />
  <path
     d="m 8.0055498,16 c -6.50001,0 -6.00001,-5 -6.00001,-5 0,0 2e-5,-1 -0.99998,-1 -1.00000003,0 -1.00002003,1 -1.00002003,1 0,0 -0.45986,6.4382 7.00001003,6.9657 V 21 c 0,0.5523 0.4477,1 1,1 0.5523,0 1,-0.4477 1,-1 V 17.9657 C 16.46545,17.4382 16.00555,11 16.00555,11 c 0,0 0,-1 -1,-1 -1,0 -1,1 -1,1 0,0 0.5,5 -6.0000002,5 z"
     fill="#0f0f0f"
     id="path4" />
</svg>
