<?xml version="1.0" encoding="iso-8859-1"?>
<!-- Uploaded to: SVG Repo, www.svgrepo.com, Generator: SVG Repo Mixer Tools -->
<svg fill="#000000" version="1.1" id="Layer_1" xmlns="http://www.w3.org/2000/svg" xmlns:xlink="http://www.w3.org/1999/xlink" 
	 viewBox="0 0 512 512" xml:space="preserve">
<g>
	<g>
		<g>
			<path d="M488.413,118.27c0-31.606-12.309-61.323-34.659-83.671C411.664-7.493,345.498-11.175,299.184,23.53l-7.131-7.131
				L268.211,40.24l7.12,7.12c-16.405,21.844-24.698,48.595-23.458,76.141L39.935,351.283l38.815,38.815
				c-18.243,21.376-21.458,35.552-24.34,48.289c-2.975,13.143-5.545,24.493-30.822,49.771L47.429,512
				c32.17-32.171,36.257-50.232,39.865-66.169c2.247-9.924,4.128-18.212,15.358-31.83l34.416,34.416l227.782-211.94
				c1.797,0.081,3.593,0.133,5.382,0.133c25.634,0,50.338-8.262,70.754-23.594l7.124,7.124l23.841-23.841l-7.121-7.121
				C480.132,168.825,488.413,144.186,488.413,118.27z M137.911,401.577L86.773,350.44l182.909-196.581l64.81,64.811L137.911,401.577
				z M366.302,202.793l-80.745-80.745c-0.818-18.069,4.097-35.659,13.96-50.502l117.286,117.287
				C401.963,198.697,384.374,203.609,366.302,202.793z M440.649,164.995L323.369,47.714c32.839-21.755,77.634-18.184,106.543,10.725
				c15.982,15.982,24.783,37.231,24.783,59.83C454.695,135.143,449.785,151.259,440.649,164.995z"/>
			
				<rect x="191.378" y="260.003" transform="matrix(-0.7071 -0.7071 0.7071 -0.7071 165.2732 622.1811)" width="40.234" height="33.717"/>
		</g>
	</g>
</g>
</svg>