<?xml version="1.0" encoding="UTF-8" standalone="no"?>
<!-- Uploaded to: SVG Repo, www.svgrepo.com, Generator: SVG Repo Mixer Tools -->

<svg
   width="713.33337"
   height="713.33337"
   viewBox="0 0 21.400001 21.400001"
   fill="none"
   version="1.1"
   id="svg6"
   sodipodi:docname="icon_time.svg"
   inkscape:version="1.1.1 (3bf5ae0d25, 2021-09-20)"
   xmlns:inkscape="http://www.inkscape.org/namespaces/inkscape"
   xmlns:sodipodi="http://sodipodi.sourceforge.net/DTD/sodipodi-0.dtd"
   xmlns="http://www.w3.org/2000/svg"
   xmlns:svg="http://www.w3.org/2000/svg">
  <defs
     id="defs10" />
  <sodipodi:namedview
     id="namedview8"
     pagecolor="#ffffff"
     bordercolor="#666666"
     borderopacity="1.0"
     inkscape:pageshadow="2"
     inkscape:pageopacity="0.0"
     inkscape:pagecheckerboard="0"
     showgrid="false"
     fit-margin-top="0"
     fit-margin-left="0"
     fit-margin-right="0"
     fit-margin-bottom="0"
     inkscape:zoom="0.73539105"
     inkscape:cx="210.77221"
     inkscape:cy="344.71456"
     inkscape:window-width="1920"
     inkscape:window-height="1017"
     inkscape:window-x="-8"
     inkscape:window-y="-8"
     inkscape:window-maximized="1"
     inkscape:current-layer="svg6" />
  <path
     d="m 21.4,10.7 c 0,6.0751 -4.6249,10.7 -10.7,10.7 C 4.62487,21.4 0,16.7751 0,10.7 0,4.62487 4.62487,0 10.7,0 16.7751,0 21.4,4.62487 21.4,10.7 Z m -19.69317,0 c 0,4.9668 4.02638,8.9932 8.99317,8.9932 4.9668,0 8.9932,-4.0264 8.9932,-8.9932 0,-4.96679 -4.0264,-8.99317 -8.9932,-8.99317 -4.96679,0 -8.99317,4.02638 -8.99317,8.99317 z"
     fill="#0f0f0f"
     id="path2"
     sodipodi:nodetypes="ssssssssss" />
  <path
     d="m 10.7,3.7 c -0.5523,0 -1,0.44771 -1,1 v 6.4667 c 0,0 0,0.2607 0.1267,0.4568 0.0848,0.1663 0.217,0.3108 0.3907,0.4111 l 4.6198,2.6673 c 0.4783,0.2761 1.0899,0.1122 1.366,-0.3661 0.2761,-0.4783 0.1123,-1.0899 -0.366,-1.366 L 11.7,10.5812 V 4.7 c 0,-0.55228 -0.4477,-1 -1,-1 z"
     fill="#0f0f0f"
     id="path4" />
</svg>
