<?xml version="1.0" encoding="UTF-8" standalone="no"?>
<!-- Uploaded to: SVG Repo, www.svgrepo.com, Generator: SVG Repo Mixer Tools -->

<svg
   width="666.82233"
   height="533.48895"
   viewBox="0 0 20.00467 16.004669"
   fill="none"
   version="1.1"
   id="svg4"
   sodipodi:docname="icon_material.svg"
   inkscape:version="1.1.1 (3bf5ae0d25, 2021-09-20)"
   xmlns:inkscape="http://www.inkscape.org/namespaces/inkscape"
   xmlns:sodipodi="http://sodipodi.sourceforge.net/DTD/sodipodi-0.dtd"
   xmlns="http://www.w3.org/2000/svg"
   xmlns:svg="http://www.w3.org/2000/svg">
  <defs
     id="defs8" />
  <sodipodi:namedview
     id="namedview6"
     pagecolor="#ffffff"
     bordercolor="#666666"
     borderopacity="1.0"
     inkscape:pageshadow="2"
     inkscape:pageopacity="0.0"
     inkscape:pagecheckerboard="0"
     showgrid="false"
     fit-margin-top="0"
     fit-margin-left="0"
     fit-margin-right="0"
     fit-margin-bottom="0"
     inkscape:zoom="0.52"
     inkscape:cx="11.538462"
     inkscape:cy="141.34615"
     inkscape:window-width="1920"
     inkscape:window-height="1017"
     inkscape:window-x="-8"
     inkscape:window-y="-8"
     inkscape:window-maximized="1"
     inkscape:current-layer="svg4" />
  <path
     d="m 1.002335,4.2023329 c 0,-1.12011 0,-1.68016 0.21799,-2.10798 0.19174,-0.37633 0.4977,-0.68229 0.87403,-0.87403 0.42782,-0.21799 0.98788,-0.21799 2.10798,-0.21799 h 3.47452 c 0.48918,0 0.73378,0 0.96398,0.05526 0.204,0.04899 0.3991,0.1298 0.5781,0.23946 0.2018,0.12368 0.3748,0.29663 0.7207,0.64254 l 0.1254,0.12548 c 0.3459,0.34591 0.5189,0.51886 0.7207,0.64254 0.179,0.10966 0.3741,0.19047 0.5781,0.23946 0.2302,0.05526 0.4748,0.05526 0.964,0.05526 h 3.4745 c 1.1201,0 1.6802,0 2.108,0.21799 0.3763,0.19174 0.6823,0.4977 0.874,0.87403 0.218,0.42782 0.218,0.98788 0.218,2.10798 v 5.6000001 c 0,1.1201 0,1.6802 -0.218,2.108 -0.1917,0.3763 -0.4977,0.6823 -0.874,0.874 -0.4278,0.218 -0.9879,0.218 -2.108,0.218 h -11.6 c -1.12011,0 -1.68016,0 -2.10798,-0.218 -0.37633,-0.1917 -0.68229,-0.4977 -0.87403,-0.874 -0.21799,-0.4278 -0.21799,-0.9879 -0.21799,-2.108 z"
     stroke="#000000"
     stroke-width="2"
     stroke-linecap="round"
     stroke-linejoin="round"
     id="path2" />
</svg>
