<?xml version="1.0" encoding="UTF-8" standalone="no"?>
<!-- Uploaded to: SVG Repo, www.svgrepo.com, Generator: SVG Repo Mixer Tools -->

<svg
   fill="#000000"
   height="688.31647"
   width="629.0976"
   version="1.1"
   id="Capa_1"
   viewBox="0 0 162.68935 178.00381"
   xml:space="preserve"
   sodipodi:docname="icon_tamada3.svg"
   inkscape:version="1.1.1 (3bf5ae0d25, 2021-09-20)"
   xmlns:inkscape="http://www.inkscape.org/namespaces/inkscape"
   xmlns:sodipodi="http://sodipodi.sourceforge.net/DTD/sodipodi-0.dtd"
   xmlns="http://www.w3.org/2000/svg"
   xmlns:svg="http://www.w3.org/2000/svg"><defs
   id="defs7" /><sodipodi:namedview
   id="namedview5"
   pagecolor="#ffffff"
   bordercolor="#666666"
   borderopacity="1.0"
   inkscape:pageshadow="2"
   inkscape:pageopacity="0.0"
   inkscape:pagecheckerboard="0"
   showgrid="false"
   fit-margin-top="0"
   fit-margin-left="0"
   fit-margin-right="0"
   fit-margin-bottom="0"
   inkscape:zoom="0.36769553"
   inkscape:cx="-118.3044"
   inkscape:cy="624.15772"
   inkscape:window-width="1920"
   inkscape:window-height="1017"
   inkscape:window-x="-8"
   inkscape:window-y="-8"
   inkscape:window-maximized="1"
   inkscape:current-layer="Capa_1" />
<path
   d="m 12.572795,147.52435 -2.8719998,-2.872 c -5.27,-5.27 -5.443,-13.692 -0.394,-19.173 L 58.531795,72.04136 c -1.568,-2.716 -1.303,-6.235 0.854,-8.692 l 24.493,-27.883 c 1.11,-8.494 4.894,-16.174 10.967,-22.248 15.051995,-15.0519959 39.543995,-15.0519959 54.595995,0 7.292,7.292 11.308,16.986 11.308,27.298 0,10.312 -4.016,20.006 -11.308,27.298 -6.073,6.074 -13.754,9.857 -22.248,10.968 l -27.882995,24.49199 c -2.457,2.158 -5.976,2.423 -8.691,0.854 l -53.44,49.223 c -5.481,5.049 -13.903,4.876 -19.173,-0.394 l -2.606,-2.606 c -2.828,-2.827 0,0 -2.828,-2.827 z m 4.26,-1.397 4.002,4.002 c 3.747,3.746 9.737,3.871 13.635,0.279 l 54.664,-50.35299 c 0.79,-0.725999 2.011,-0.701999 2.769,0.057 1.297,1.296 3.39,1.364 4.768,0.154 l 26.996995,-23.714 -37.562995,-37.563 -23.714,26.998 c -1.209,1.377 -1.142,3.472 0.154,4.767 0.759,0.759 0.784,1.98 0.057,2.77 l -50.353,54.66299 c -3.5909998,3.898 -3.4679998,9.887 0.28,13.635 l 4.268,4.268 0.018,0.018 c 0.007,0.007 0.012,0.013 0.018,0.019 z m 71.125,-110.94199 39.514995,39.515 c 7.295,-1.122 13.889,-4.464 19.141,-9.716 13.493,-13.493 13.493,-35.447 0,-48.94 -13.494,-13.4929959 -35.448,-13.4919959 -48.939995,0 -5.252,5.253 -8.594,11.847 -9.716,19.141 z m -20.264,67.78599 c -2.036,0 -3.951,-0.793 -5.391,-2.23299 l -0.383,-0.383 c -2.972,-2.971999 -2.972,-7.808 0,-10.78 l 19.687,-19.687 c 2.972,-2.972 7.809,-2.973 10.78,0 l 0.383,0.382 c 2.973,2.973 2.973,7.809 0.001,10.781 l -19.687,19.686 v 0 c -1.439,1.43999 -3.354,2.23399 -5.39,2.23399 z m 19.303,-31.31499 c -0.928,0 -1.855,0.353 -2.562,1.06 l -19.686,19.686 c -1.413,1.413 -1.413,3.711001 0,5.124001 l 0.383,0.383 c 1.369,1.369 3.755,1.369 5.124,0 v 0 l 19.687,-19.687001 c 0.684,-0.685 1.061,-1.594 1.061,-2.562 0,-0.968 -0.377,-1.877 -1.061,-2.562 l -0.383,-0.382 c -0.707,-0.706 -1.635,-1.06 -2.563,-1.06 z m -19.084,25.089001 c -0.512,0 -1.024,-0.195 -1.414,-0.586 -0.781,-0.781001 -0.781,-2.047001 0,-2.828001 l 3.181,-3.181 c 0.78,-0.781 2.048,-0.781 2.828,0 0.781,0.781 0.781,2.047 0,2.828 l -3.181,3.181001 c -0.39,0.39 -0.902,0.586 -1.414,0.586 z M 139.67779,24.61136 c -0.512,0 -1.024,-0.195 -1.414,-0.586 -8.99,-8.989 -23.618,-8.991 -32.609,0 -0.78,0.781 -2.048,0.781 -2.828,0 -0.781,-0.781 -0.781,-2.047 0,-2.828 10.551,-10.549999 27.717,-10.548999 38.266,0 0.781,0.781 0.781,2.047 0,2.828 -0.391,0.391 -0.903,0.586 -1.415,0.586 z"
   id="path2"
   sodipodi:nodetypes="cscccccsscccccsccscccccccccccscssccscccsssssccccssssssssccsccsscsccssssccccsss"
   style="stroke:#000000;stroke-width:3.87911;stroke-miterlimit:4;stroke-dasharray:none;stroke-opacity:1" />
<path
   style="fill:none;stroke:#000000;stroke-width:7.75822;stroke-linecap:butt;stroke-linejoin:miter;stroke-miterlimit:4;stroke-dasharray:none;stroke-opacity:1"
   d="m 15.884327,147.88973 c 0,0 -16.70574783,11.68873 -10.7378838,23.12714 5.9678678,11.43841 46.6068358,-10.38401 74.4483668,-39.3652 28.46802,-29.63333 50.92678,-29.72723 56.89465,-3.86648 5.96786,25.86075 -7.01249,32.29059 -11.98571,37.26381"
   id="path1104"
   sodipodi:nodetypes="csssc" /></svg>
