<?xml version="1.0" encoding="UTF-8" standalone="no"?>
<!-- Uploaded to: SVG Repo, www.svgrepo.com, Generator: SVG Repo Mixer Tools -->

<svg
   width="745.33331"
   height="781.00177"
   viewBox="0 0 22.359999 23.430054"
   version="1.1"
   id="svg6"
   sodipodi:docname="icon_certificate2.svg"
   inkscape:version="1.1.1 (3bf5ae0d25, 2021-09-20)"
   xmlns:inkscape="http://www.inkscape.org/namespaces/inkscape"
   xmlns:sodipodi="http://sodipodi.sourceforge.net/DTD/sodipodi-0.dtd"
   xmlns="http://www.w3.org/2000/svg"
   xmlns:svg="http://www.w3.org/2000/svg">
  <defs
     id="defs10" />
  <sodipodi:namedview
     id="namedview8"
     pagecolor="#ffffff"
     bordercolor="#666666"
     borderopacity="1.0"
     inkscape:pageshadow="2"
     inkscape:pageopacity="0.0"
     inkscape:pagecheckerboard="0"
     showgrid="false"
     fit-margin-top="0"
     fit-margin-left="0"
     fit-margin-right="0"
     fit-margin-bottom="0"
     inkscape:zoom="0.36769553"
     inkscape:cx="-190.3749"
     inkscape:cy="63.911574"
     inkscape:window-width="1920"
     inkscape:window-height="1017"
     inkscape:window-x="-8"
     inkscape:window-y="-8"
     inkscape:window-maximized="1"
     inkscape:current-layer="svg6" />
  <path
     d="M 22.18,0.18000001 V 18.18 h -3 v -1 h 2 v -16 h -20 v 16 h 8 v 1 H 0.18000001 V 0.18000001 Z M 15.18,2.18 h -8 v 1 h 8 z m -2,3 v -1 h -4 v 1 z m -7,5 h -4 v 1 h 4 z m 0,2 h -4 v 1 h 4 z m -4,3 h 2 v -1 h -2 z m 14,-3 a 2,2 0 1 1 -2,-2 2.002,2.002 0 0 1 2,2 z m -1,0 a 1,1 0 1 0 -1,1 1.001,1.001 0 0 0 1,-1 z m 0.002,-4.293 a 0.965,0.965 0 0 0 1.32,0.55 1.08,1.08 0 0 1 1.213,0.207 1.066,1.066 0 0 1 0.21,1.21 0.966,0.966 0 0 0 0.548,1.324 1.064,1.064 0 0 1 0,2.004 0.965,0.965 0 0 0 -0.549,1.323 1.05,1.05 0 0 1 -0.744,1.491 v 7.046 l -3,-2.538 -3,2.538 v -7.046 a 1.05,1.05 0 0 1 -0.744,-1.49 0.965,0.965 0 0 0 -0.549,-1.324 1.064,1.064 0 0 1 0,-2.004 0.966,0.966 0 0 0 0.549,-1.324 1.066,1.066 0 0 1 0.209,-1.21 1.08,1.08 0 0 1 1.212,-0.206 0.965,0.965 0 0 0 1.32,-0.551 1.064,1.064 0 0 1 2.005,0 z m 0.998,13 v -5.04 a 0.93,0.93 0 0 0 -0.998,0.625 1.064,1.064 0 0 1 -2.004,0 0.93,0.93 0 0 0 -0.998,-0.625 v 5.039 l 2,-1.692 z m -1.94,-4.749 a 1.967,1.967 0 0 1 1.853,-1.308 2.12,2.12 0 0 1 0.87,0.197 l 0.058,-0.091 a 1.964,1.964 0 0 1 1.116,-2.695 V 12.119 A 1.966,1.966 0 0 1 17.021,9.424 L 16.934,9.34 A 1.965,1.965 0 0 1 14.24,8.223 H 14.12 A 1.965,1.965 0 0 1 11.426,9.34 l -0.087,0.084 a 1.966,1.966 0 0 1 -1.116,2.695 v 0.122 a 1.964,1.964 0 0 1 1.116,2.695 l 0.058,0.09 a 2.12,2.12 0 0 1 0.87,-0.196 1.967,1.967 0 0 1 1.853,1.308 l 0.06,0.042 z"
     id="path2"
     style="stroke:#000000;stroke-width:0.36;stroke-miterlimit:4;stroke-dasharray:none;stroke-opacity:1" />
</svg>
