<?xml version="1.0" encoding="UTF-8" standalone="no"?>
<!-- Uploaded to: SVG Repo, www.svgrepo.com, Generator: SVG Repo Mixer Tools -->

<svg
   width="707.74884"
   height="578.47675"
   viewBox="0 0 21.232464 17.354302"
   fill="none"
   version="1.1"
   id="svg4"
   sodipodi:docname="icon_material2.svg"
   inkscape:version="1.1.1 (3bf5ae0d25, 2021-09-20)"
   xmlns:inkscape="http://www.inkscape.org/namespaces/inkscape"
   xmlns:sodipodi="http://sodipodi.sourceforge.net/DTD/sodipodi-0.dtd"
   xmlns="http://www.w3.org/2000/svg"
   xmlns:svg="http://www.w3.org/2000/svg">
  <defs
     id="defs8" />
  <sodipodi:namedview
     id="namedview6"
     pagecolor="#ffffff"
     bordercolor="#666666"
     borderopacity="1.0"
     inkscape:pageshadow="2"
     inkscape:pageopacity="0.0"
     inkscape:pagecheckerboard="0"
     showgrid="false"
     fit-margin-top="0"
     fit-margin-left="0"
     fit-margin-right="0"
     fit-margin-bottom="0"
     inkscape:zoom="0.36769553"
     inkscape:cx="-163.17849"
     inkscape:cy="360.35249"
     inkscape:window-width="1920"
     inkscape:window-height="1017"
     inkscape:window-x="-8"
     inkscape:window-y="-8"
     inkscape:window-maximized="1"
     inkscape:current-layer="File / Folder_Open" />
  <g
     id="File / Folder_Open"
     transform="translate(-2.3239439,-3.3248614)">
    <path
       id="Vector"
       d="m 17.8031,20 h 1.9899 c 0.4325,0 0.6489,0 0.8306,-0.0742 0.1604,-0.0655 0.3015,-0.172 0.4086,-0.3083 0.1213,-0.1544 0.181,-0.362 0.2998,-0.778 l 1.0857,-3.7999 C 22.6156,14.3472 22.714,14.0009 22.6363,13.7271 22.5682,13.4871 22.4131,13.2813 22.2011,13.15 21.9731,13.0087 21.64,13.0005 21.0002,13 m -3.1971,7 H 6.19691 m 11.60619,0 c 1.1179,0 1.6769,0 2.1043,-0.2178 0.3763,-0.1917 0.6831,-0.4981 0.8748,-0.8744 0.218,-0.4278 0.63757,-0.931698 0.996846,-1.992615 C 22.780531,13.957869 23.441485,13.192228 22.2011,13.15 M 6.19691,20 H 5.12109 C 4.40152,20 4.04075,20 3.79883,19.8501 3.58683,19.7187 3.43144,19.5129 3.36338,19.2729 3.34904,19.2224 3.34073,19.1694 3.33796,19.1122 M 6.19691,20 C 5.07899,20 4.5192,20 4.0918,19.7822 3.78624,19.6265 3.52721,19.3952 3.33796,19.1122 M 21.0002,13 H 20.8786 5.00028 l -1.41727,4.9604 -0.00205,0.007 c -0.16013,0.5604 -0.25518,0.8931 -0.243,1.1448 M 21.0002,13 v 0 -3.80022 c 0,-1.12011 0,-1.68016 -0.218,-2.10798 C 20.5905,6.71547 20.2839,6.40973 19.9076,6.21799 19.4798,6 18.9201,6 17.8,6 H 12 M 3.33796,19.1122 C 3.29413,19.0467 3.25404,18.9784 3.21799,18.9076 3,18.4798 3,17.9201 3,16.8 V 6 m 0,0 h 9 M 3,6 C 3,4.89543 3.89543,4 5,4 h 3.67452 c 0.48918,0 0.73434,0 0.96452,0.05526 0.20407,0.04899 0.39886,0.13 0.57776,0.23966 0.2018,0.12365 0.375,0.2969 0.7207,0.64258 L 12,6"
       stroke="#000000"
       stroke-width="2"
       stroke-linecap="round"
       stroke-linejoin="round"
       sodipodi:nodetypes="csscccccccccccsccsccccccccccccccsccscccsccccsssccc"
       style="stroke-width:1.35;stroke-miterlimit:4;stroke-dasharray:none" />
  </g>
</svg>
