<?xml version="1.0" encoding="UTF-8" standalone="no"?>
<!-- Uploaded to: SVG Repo, www.svgrepo.com, Generator: SVG Repo Mixer Tools -->

<svg
   width="783.33331"
   height="650"
   viewBox="0 0 23.499999 19.5"
   fill="none"
   version="1.1"
   id="svg4"
   sodipodi:docname="icon_requirements2.svg"
   inkscape:version="1.1.1 (3bf5ae0d25, 2021-09-20)"
   xmlns:inkscape="http://www.inkscape.org/namespaces/inkscape"
   xmlns:sodipodi="http://sodipodi.sourceforge.net/DTD/sodipodi-0.dtd"
   xmlns="http://www.w3.org/2000/svg"
   xmlns:svg="http://www.w3.org/2000/svg">
  <defs
     id="defs8" />
  <sodipodi:namedview
     id="namedview6"
     pagecolor="#ffffff"
     bordercolor="#666666"
     borderopacity="1.0"
     inkscape:pageshadow="2"
     inkscape:pageopacity="0.0"
     inkscape:pagecheckerboard="0"
     showgrid="false"
     fit-margin-top="0"
     fit-margin-left="0"
     fit-margin-right="0"
     fit-margin-bottom="0"
     inkscape:zoom="0.52"
     inkscape:cx="53.846154"
     inkscape:cy="258.65385"
     inkscape:window-width="1920"
     inkscape:window-height="1017"
     inkscape:window-x="-8"
     inkscape:window-y="-8"
     inkscape:window-maximized="1"
     inkscape:current-layer="svg4" />
  <path
     d="m 18.75,12.75 c 2.2091,0 4,1.7909 4,4 v 2 h -2 m -5,-10.126 c 1.7252,-0.4441 3,-2.01017 3,-3.87401 0,-1.86384 -1.2748,-3.42994 -3,-3.87398 m -3,3.87399 c 0,2.20914 -1.7909,4 -4,4 -2.20914,0 -4,-1.79086 -4,-4 0,-2.20914 1.79086,-4 4,-4 2.2091,0 4,1.79086 4,4 z m -8,8 h 8 c 2.2091,0 4,1.7909 4,4 v 2 h -16 v -2 c 0,-2.2091 1.79086,-4 4,-4 z"
     stroke="#000000"
     stroke-width="1.5"
     stroke-linecap="round"
     stroke-linejoin="round"
     id="path2" />
</svg>
