<?xml version="1.0" encoding="UTF-8" standalone="no"?>
<svg
   width="666.66669"
   height="666.66669"
   viewBox="0 0 20.000001 20.000001"
   version="1.1"
   id="svg9"
   sodipodi:docname="icon_selectall.svg"
   inkscape:version="1.1.1 (3bf5ae0d25, 2021-09-20)"
   xmlns:inkscape="http://www.inkscape.org/namespaces/inkscape"
   xmlns:sodipodi="http://sodipodi.sourceforge.net/DTD/sodipodi-0.dtd"
   xmlns="http://www.w3.org/2000/svg"
   xmlns:svg="http://www.w3.org/2000/svg"
   xmlns:rdf="http://www.w3.org/1999/02/22-rdf-syntax-ns#"
   xmlns:cc="http://creativecommons.org/ns#"
   xmlns:dc="http://purl.org/dc/elements/1.1/">
  <defs
     id="defs13" />
  <sodipodi:namedview
     id="namedview11"
     pagecolor="#ffffff"
     bordercolor="#666666"
     borderopacity="1.0"
     inkscape:pageshadow="2"
     inkscape:pageopacity="0.0"
     inkscape:pagecheckerboard="0"
     showgrid="false"
     fit-margin-top="0"
     fit-margin-left="0"
     fit-margin-right="0"
     fit-margin-bottom="0"
     inkscape:zoom="0.73539105"
     inkscape:cx="193.77445"
     inkscape:cy="314.7985"
     inkscape:window-width="1920"
     inkscape:window-height="1017"
     inkscape:window-x="-8"
     inkscape:window-y="-8"
     inkscape:window-maximized="1"
     inkscape:current-layer="ðŸ”-Product-Icons" />
  <!-- Uploaded to: SVG Repo, www.svgrepo.com, Generator: SVG Repo Mixer Tools -->
  <title
     id="title2">ic_fluent_select_all_24_regular</title>
  <desc
     id="desc4">Created with Sketch.</desc>
  <g
     id="ðŸ”-Product-Icons"
     stroke="none"
     stroke-width="1"
     fill="none"
     fill-rule="evenodd"
     transform="translate(-2,-2)">
    <g
       id="ic_fluent_select_all_24_regular"
       fill="#212121"
       fill-rule="nonzero"
       style="fill:#ffffff;fill-opacity:1">
      <path
         d="M 20.496177,5.6266818 C 21.372067,5.934477 22,6.7689078 22,7.75 v 10 C 22,20.09721 20.09721,22 17.75,22 h -10 C 6.7689078,22 5.934477,21.372067 5.6266818,20.496177 l 2.0972801,0.0034 L 17.75,20.5 c 1.518783,0 2.75,-1.231217 2.75,-2.75 v -10 L 20.496,7.699019 Z M 17.246813,2 c 1.242641,0 2.25,1.0073593 2.25,2.25 v 12.996813 c 0,1.242641 -1.007359,2.25 -2.25,2.25 H 4.25 c -1.2426407,0 -2.25,-1.007359 -2.25,-2.25 V 4.25 C 2,3.0073593 3.0073593,2 4.25,2 Z m 0,1.5 H 4.25 C 3.8357864,3.5 3.5,3.8357864 3.5,4.25 v 12.996813 c 0,0.414214 0.3357864,0.75 0.75,0.75 h 12.996813 c 0.414214,0 0.75,-0.335786 0.75,-0.75 V 4.25 c 0,-0.4142136 -0.335786,-0.75 -0.75,-0.75 z M 9.5811456,11.358194 13.46967,7.4696699 c 0.292893,-0.2928932 0.767767,-0.2928932 1.06066,0 0.266267,0.2662666 0.290473,0.6829303 0.07262,0.9765418 l -0.07262,0.084118 -4.5,4.5000003 c -0.2958376,0.295838 -0.7689897,0.288617 -1.0567261,0.0041 L 8.9,12.95 7.4,10.95 C 7.1514719,10.618629 7.2186291,10.148528 7.55,9.9 7.8512462,9.6740653 8.2671455,9.7090277 8.5269968,9.9662155 L 8.6,10.05 9.5811456,11.358194 13.46967,7.4696699 Z"
         id="ðŸŽ¨-Color"
         style="fill:#ffffff;fill-opacity:1" />
    </g>
  </g>
  <metadata
     id="metadata830">
    <rdf:RDF>
      <cc:Work
         rdf:about="">
        <dc:title>ic_fluent_select_all_24_regular</dc:title>
      </cc:Work>
    </rdf:RDF>
  </metadata>
</svg>
