<?xml version="1.0" encoding="UTF-8" standalone="no"?>
<!-- Uploaded to: SVG Repo, www.svgrepo.com, Generator: SVG Repo Mixer Tools -->

<svg
   width="699.99951"
   height="583.33374"
   viewBox="0 0 41.999971 35.000024"
   fill="none"
   version="1.1"
   id="svg4"
   sodipodi:docname="icon_telegram.svg"
   inkscape:version="1.1.1 (3bf5ae0d25, 2021-09-20)"
   xmlns:inkscape="http://www.inkscape.org/namespaces/inkscape"
   xmlns:sodipodi="http://sodipodi.sourceforge.net/DTD/sodipodi-0.dtd"
   xmlns="http://www.w3.org/2000/svg"
   xmlns:svg="http://www.w3.org/2000/svg">
  <defs
     id="defs8" />
  <sodipodi:namedview
     id="namedview6"
     pagecolor="#ffffff"
     bordercolor="#666666"
     borderopacity="1.0"
     inkscape:pageshadow="2"
     inkscape:pageopacity="0.0"
     inkscape:pagecheckerboard="0"
     showgrid="false"
     fit-margin-top="0"
     fit-margin-left="0"
     fit-margin-right="0"
     fit-margin-bottom="0"
     inkscape:zoom="1.04"
     inkscape:cx="350"
     inkscape:cy="283.17308"
     inkscape:window-width="1920"
     inkscape:window-height="1017"
     inkscape:window-x="-8"
     inkscape:window-y="-8"
     inkscape:window-maximized="1"
     inkscape:current-layer="svg4" />
  <path
     d="m 38.419301,0.30899024 c 0,0 3.8853,-1.51500004 3.5615,2.16428996 -0.1079,1.51502 -1.0792,6.81752 -1.8347,12.5529198 l -2.5902,16.9897 c 0,0 -0.2158,2.4889 -2.1585,2.9218 -1.9427,0.4328 -4.8566,-1.515 -5.3963,-1.9479 -0.4317,-0.3246 -8.0943,-5.1943 -10.7925,-7.575 -0.7555,-0.6493 -1.6189,-1.9479 0.1079,-3.4629 l 11.3322,-10.8214 c 1.2951,-1.2985998 2.5902,-4.3285998 -2.8061,-0.6493 l -15.1095,10.2804 c 0,0 -1.7268,1.0821 -4.9645002,0.1082 L 0.75342083,18.7055 c 0,0 -2.59021003,-1.6232 1.83472997,-3.2465 C 13.380701,10.3729 26.655501,5.1786002 38.419301,0.30899024 Z"
     fill="#000000"
     id="path2" />
</svg>
