<?xml version="1.0" encoding="UTF-8" standalone="no"?>
<!-- Uploaded to: SVG Repo, www.svgrepo.com, Generator: SVG Repo Mixer Tools -->

<svg
   fill="#000000"
   height="800"
   width="742.41736"
   version="1.1"
   id="Capa_1"
   viewBox="0 0 343.665 370.32"
   xml:space="preserve"
   sodipodi:docname="icon_private_info.svg"
   inkscape:version="1.1.1 (3bf5ae0d25, 2021-09-20)"
   xmlns:inkscape="http://www.inkscape.org/namespaces/inkscape"
   xmlns:sodipodi="http://sodipodi.sourceforge.net/DTD/sodipodi-0.dtd"
   xmlns="http://www.w3.org/2000/svg"
   xmlns:svg="http://www.w3.org/2000/svg"><defs
   id="defs15" /><sodipodi:namedview
   id="namedview13"
   pagecolor="#ffffff"
   bordercolor="#666666"
   borderopacity="1.0"
   inkscape:pageshadow="2"
   inkscape:pageopacity="0.0"
   inkscape:pagecheckerboard="0"
   showgrid="false"
   fit-margin-top="0"
   fit-margin-left="0"
   fit-margin-right="0"
   fit-margin-bottom="0"
   inkscape:zoom="0.52"
   inkscape:cx="251.92308"
   inkscape:cy="281.73077"
   inkscape:window-width="1920"
   inkscape:window-height="1017"
   inkscape:window-x="-8"
   inkscape:window-y="-8"
   inkscape:window-maximized="1"
   inkscape:current-layer="g10" />
<g
   id="g10"
   transform="translate(-13.327)">
	<path
   d="M 154.66,134.16 H 86.993 c -8.284,0 -15,6.716 -15,15 0,8.284 6.716,15 15,15 h 67.667 c 8.284,0 15,-6.716 15,-15 0,-8.284 -6.716,-15 -15,-15 z"
   id="path2" />
	<path
   d="M 154.66,224.16 H 86.993 c -8.284,0 -15,6.716 -15,15 0,8.284 6.716,15 15,15 h 67.667 c 8.284,0 15,-6.716 15,-15 0,-8.284 -6.716,-15 -15,-15 z"
   id="path4" />
	<path
   d="m 271.993,152.878 c -13.035,0 -23.636,10.602 -23.636,23.637 v 15.635 h 47.272 v -15.635 c 0,-13.035 -10.601,-23.637 -23.636,-23.637 z"
   id="path6" />
	<path
   d="m 343.358,177.646 v -1.131 c 0,-31.924 -21.069,-59.017 -50.031,-68.109 V 73.703 c 0,-3.934 -1.56,-7.706 -4.344,-10.484 L 230.107,4.339 C 227.323,1.561 223.557,0 219.623,0 H 42.439 C 26.386,0 13.327,13.06 13.327,29.112 v 312.095 c 0,16.054 13.059,29.113 29.111,29.113 h 221.777 c 16.052,0 29.111,-13.06 29.111,-29.113 v -11.508 h 22.758 c 22.557,0 40.908,-18.352 40.908,-40.91 v -80.727 c 10e-4,-11.914 -5.237,-22.854 -13.634,-30.416 z m -81.644,160.26 H 44.94 V 32.414 h 154.088 v 43.577 c 0,10.554 8.554,19.106 19.105,19.106 h 43.58 v 10.8 c -34.496,5 -61.086,34.757 -61.086,70.619 v 1.131 c -8.395,7.563 -13.635,18.502 -13.635,30.416 v 80.727 c 0,22.558 18.352,40.91 40.908,40.91 h 33.813 v 8.206 z M 331.993,219.73 h -27.044 c -6.404,0 -11.592,5.191 -11.592,11.59 0,6.4 5.188,11.59 11.592,11.59 h 27.044 v 16.561 h -27.044 c -6.404,0 -11.592,5.189 -11.592,11.594 0,6.402 5.188,11.592 11.592,11.592 h 27.044 v 6.133 c 0,8.789 -7.121,15.91 -15.908,15.91 h -88.184 c -8.787,0 -15.908,-7.121 -15.908,-15.91 v -80.727 c 0,-8.016 5.925,-14.643 13.635,-15.748 v -15.799 c 0,-25.57 20.801,-46.369 46.365,-46.369 25.564,0 46.365,20.799 46.365,46.369 v 15.799 c 7.71,1.105 13.635,7.732 13.635,15.748 z"
   id="path8" />
</g>
</svg>
