<?xml version="1.0" encoding="UTF-8" standalone="no"?>
<!-- Uploaded to: SVG Repo, www.svgrepo.com, Generator: SVG Repo Mixer Tools -->

<svg
   width="666.66663"
   height="597.98816"
   viewBox="0 0 19.999999 17.939645"
   version="1.1"
   id="svg9"
   sodipodi:docname="icon_certificate.svg"
   inkscape:version="1.1.1 (3bf5ae0d25, 2021-09-20)"
   xmlns:inkscape="http://www.inkscape.org/namespaces/inkscape"
   xmlns:sodipodi="http://sodipodi.sourceforge.net/DTD/sodipodi-0.dtd"
   xmlns="http://www.w3.org/2000/svg"
   xmlns:svg="http://www.w3.org/2000/svg"
   xmlns:rdf="http://www.w3.org/1999/02/22-rdf-syntax-ns#"
   xmlns:cc="http://creativecommons.org/ns#"
   xmlns:dc="http://purl.org/dc/elements/1.1/">
  <defs
     id="defs13" />
  <sodipodi:namedview
     id="namedview11"
     pagecolor="#ffffff"
     bordercolor="#666666"
     borderopacity="1.0"
     inkscape:pageshadow="2"
     inkscape:pageopacity="0.0"
     inkscape:pagecheckerboard="0"
     showgrid="false"
     fit-margin-top="0"
     fit-margin-left="0"
     fit-margin-right="0"
     fit-margin-bottom="0"
     inkscape:zoom="0.73539105"
     inkscape:cx="231.16952"
     inkscape:cy="309.35922"
     inkscape:window-width="1920"
     inkscape:window-height="1017"
     inkscape:window-x="-8"
     inkscape:window-y="-8"
     inkscape:window-maximized="1"
     inkscape:current-layer="certificate_line" />
  <title
     id="title2">certificate_line</title>
  <g
     id="页面-1"
     stroke="none"
     stroke-width="1"
     fill="none"
     fill-rule="evenodd"
     transform="translate(-4.4820908,-1.8815469)">
    <g
       id="Education"
       transform="translate(-864)"
       fill-rule="nonzero">
      <g
         id="certificate_line"
         transform="translate(864)">
        <path
           d="m 20.48209,7.8815469 c 2.2091,0 4,1.7909 4,4.0000001 0,1.0144 -0.3776,1.9407 -1,2.6458 v 4.1924 c 0,0.8177 -0.8605,1.3496 -1.5919,0.9839 l -1.4081,-0.7041 -1.4081,0.7041 c -0.7314,0.3657 -1.5919,-0.1662 -1.5919,-0.9839 v -4.1924 c -0.6224,-0.7051 -1,-1.6314 -1,-2.6458 0,-2.2091001 1.7909,-4.0000001 4,-4.0000001 z m 2,-6 c 1.1046,0 2,0.89543 2,2 v 2 c 0,0.55228 -0.4477,1 -1,1 -0.5523,0 -1,-0.44772 -1,-1 v -2 H 6.4820908 V 15.881547 H 14.48209 c 0.5523,0 1,0.4477 1,1 0,0.5523 -0.4477,1 -1,1 H 6.4820908 c -1.10457,0 -2,-0.8954 -2,-2 V 3.8815469 c 0,-1.10457 0.89543,-2 2,-2 z m -1,13.8740001 c -0.3196,0.0822 -0.6547,0.126 -1,0.126 -0.3453,0 -0.6804,-0.0438 -1,-0.126 v 1.508 l 0.5528,-0.2764 c 0.2815,-0.1408 0.6129,-0.1408 0.8944,0 l 0.5528,0.2764 z m -1,-5.8740001 c -1.1046,0 -2,0.8954001 -2,2.0000001 0,1.1046 0.8954,2 2,2 1.1046,0 2,-0.8954 2,-2 0,-1.1046 -0.8954,-2.0000001 -2,-2.0000001 z m -9,1.0000001 c 0.55228,0 1,0.4477 1,1 0,0.51285 -0.386044,0.935509 -0.883379,0.993273 l -0.116621,0.0067 H 9.4820903 c -0.55228,0 -1,-0.4477 -1,-1 0,-0.51285 0.386045,-0.935509 0.88338,-0.993272 l 0.11662,-0.0067 z m 4,-4.0000001 c 0.5523,0 1,0.44772 1,1 0,0.5523 -0.4477,1 -1,1 H 9.4820903 c -0.55228,0 -1,-0.4477 -1,-1 0,-0.55228 0.44772,-1 1,-1 z"
           id="形状"
           fill="#09244b"
           style="fill:#000000;fill-opacity:1" />
      </g>
    </g>
  </g>
  <metadata
     id="metadata912">
    <rdf:RDF>
      <cc:Work
         rdf:about="">
        <dc:title>certificate_line</dc:title>
      </cc:Work>
    </rdf:RDF>
  </metadata>
</svg>
