<?xml version="1.0" encoding="UTF-8" standalone="no"?>
<!-- Uploaded to: SVG Repo, www.svgrepo.com, Generator: SVG Repo Mixer Tools -->

<svg
   fill="#000000"
   height="700"
   width="699.375"
   version="1.1"
   id="Icons"
   viewBox="0 0 27.975 28"
   xml:space="preserve"
   sodipodi:docname="logout.svg"
   inkscape:version="1.1.1 (3bf5ae0d25, 2021-09-20)"
   xmlns:inkscape="http://www.inkscape.org/namespaces/inkscape"
   xmlns:sodipodi="http://sodipodi.sourceforge.net/DTD/sodipodi-0.dtd"
   xmlns="http://www.w3.org/2000/svg"
   xmlns:svg="http://www.w3.org/2000/svg"><defs
   id="defs7" /><sodipodi:namedview
   id="namedview5"
   pagecolor="#ffffff"
   bordercolor="#666666"
   borderopacity="1.0"
   inkscape:pageshadow="2"
   inkscape:pageopacity="0.0"
   inkscape:pagecheckerboard="0"
   showgrid="false"
   fit-margin-top="0"
   fit-margin-left="0"
   fit-margin-right="0"
   fit-margin-bottom="0"
   inkscape:zoom="1.04"
   inkscape:cx="325"
   inkscape:cy="349.51923"
   inkscape:window-width="1920"
   inkscape:window-height="1017"
   inkscape:window-x="-8"
   inkscape:window-y="-8"
   inkscape:window-maximized="1"
   inkscape:current-layer="Icons" />
<path
   d="m 27.9,11.6 c -0.1,-0.1 -0.1,-0.2 -0.2,-0.3 l -4,-4 c -0.4,-0.4 -1,-0.4 -1.4,0 -0.4,0.4 -0.4,1 0,1.4 L 24.6,11 H 19 V 8 1 C 19,0.4 18.6,0 18,0 H 1 C 1,0 1,0 1,0 0.9,0 0.7,0 0.6,0.1 c 0,0 0,0 -0.1,0 0,0 -0.1,0 -0.1,0.1 0,0 -0.1,0.1 -0.1,0.1 0,0 0,0 0,0 -0.1,0.1 -0.2,0.2 -0.2,0.3 0,0 0,0 0,0.1 C 0,0.8 0,0.9 0,1 v 22 c 0,0.4 0.2,0.8 0.6,0.9 l 9,4 C 9.7,28 9.9,28 10,28 10.2,28 10.4,27.9 10.5,27.8 10.8,27.6 11,27.3 11,27 v -3 h 7 c 0.6,0 1,-0.4 1,-1 V 13 h 5.6 l -2.3,2.3 c -0.4,0.4 -0.4,1 0,1.4 0.2,0.2 0.5,0.3 0.7,0.3 0.2,0 0.5,-0.1 0.7,-0.3 l 4,-4 c 0.1,-0.1 0.2,-0.2 0.2,-0.3 0.1,-0.3 0.1,-0.5 0,-0.8 z M 7,19 C 7,19.6 6.6,20 6,20 5.4,20 5,19.6 5,19 v -4 c 0,-0.6 0.4,-1 1,-1 0.6,0 1,0.4 1,1 z M 17,8 V 22 H 11 V 5 C 11,4.6 10.8,4.2 10.4,4.1 L 5.7,2 H 17 Z"
   id="path2" />
</svg>
